<svg xmlns="http://www.w3.org/2000/svg" xmlns:xlink="http://www.w3.org/1999/xlink" viewBox="0 0 940.69 675.91"><defs><style>.cls-1{fill:#1c1c1c;}.cls-2{fill:#db2626;}.cls-3{fill:url(#linear-gradient);}</style><linearGradient id="linear-gradient" x1="372.97" y1="257.78" x2="384.4" y2="-26.36" gradientUnits="userSpaceOnUse"><stop offset="0" stop-color="#f43000"/><stop offset="1" stop-color="#fece00"/></linearGradient></defs><title>gift-logomdc</title><g id="Layer_2" data-name="Layer 2"><g id="Layer_1-2" data-name="Layer 1"><path class="cls-1" d="M122.49,675.91q-33.84,0-57.89-10.88t-38-31.83q-14-21-20.28-48.36T0,521.45v-148a304.19,304.19,0,0,1,4.16-52.92,163.25,163.25,0,0,1,13.7-43A97.71,97.71,0,0,1,42.71,245Q58,232.15,80.86,225t52.92-7.12q29,0,51.3,6.18t37.21,17.19a87.8,87.8,0,0,1,24.31,27.54,122.69,122.69,0,0,1,13.43,36,216,216,0,0,1,4,43.65v28.21H167.89V340.93q0-10.2-.4-16.65A92.59,92.59,0,0,0,165.34,310q-1.76-7.79-5.11-12.09a27.16,27.16,0,0,0-9.67-7.38q-6.31-3.09-15.44-3.09-9.41,0-16,3.49a28,28,0,0,0-10.08,8.46,39.31,39.31,0,0,0-5.51,13.3,87.14,87.14,0,0,0-2.41,15.17q-.4,6.86-.41,16.79V548.58q0,26.59,7.93,42t28.88,15.45q38.67,0,38.68-59.37v-50h-40.3V437.91H265.13V669.46H199.86l-5.64-37.34Q174.6,675.91,122.49,675.91Z"/><path class="cls-1" d="M326.65,669.46V317.81H425V669.46Z"/><path class="cls-1" d="M491.05,669.46V317.81H683.92l-30.21,66.88H589.36v69.79h94.45l.11,68.77H589.36V669.46Z"/><polygon class="cls-2" points="940.69 317.81 848.32 317.81 848.32 217.9 750 217.9 750 317.81 723.74 317.81 693.53 384.69 750 384.69 750 669.46 848.32 669.46 848.32 384.69 940.69 384.69 940.69 317.81"/><path class="cls-3" d="M377.11,260.9S246.3,218.16,318.72,154.41c0,0-15.26,34.62,17.31,45.09,0,0-21.64-33.52-.46-60.94s-20-51.56-20-51.56,56.94-3.23,52.15,51.56c0,0,14.35-30.38-18.9-67.28C321,40.08,360.17,2.51,371.33,0,370,.3,369.16,9.41,369,10.4c-6.21,50.31,35.26,82.53,64.25,116.71,16.79,19.79,26.12,45.6,19.09,72C440.43,244,377.11,260.9,377.11,260.9Z"/></g></g></svg>