<svg xmlns="http://www.w3.org/2000/svg" xmlns:xlink="http://www.w3.org/1999/xlink" viewBox="0 0 1473.23 1473.23"><defs><style>.cls-1{fill:#fff;}.cls-2{fill:none;}.cls-3{fill:#1a1a1a;}.cls-4{clip-path:url(#clip-path);}.cls-5{fill:#1c1c1c;}.cls-6{fill:#db2626;}.cls-7{clip-path:url(#clip-path-2);}.cls-8{fill:#f43000;}.cls-9{fill:#f43100;}.cls-10{fill:#f43200;}.cls-11{fill:#f43300;}.cls-12{fill:#f43400;}.cls-13{fill:#f43500;}.cls-14{fill:#f43600;}.cls-15{fill:#f43700;}.cls-16{fill:#f53800;}.cls-17{fill:#f53900;}.cls-18{fill:#f53a00;}.cls-19{fill:#f53b00;}.cls-20{fill:#f53c00;}.cls-21{fill:#f53d00;}.cls-22{fill:#f53e00;}.cls-23{fill:#f53f00;}.cls-24{fill:#f54000;}.cls-25{fill:#f54100;}.cls-26{fill:#f54200;}.cls-27{fill:#f54300;}.cls-28{fill:#f54400;}.cls-29{fill:#f54500;}.cls-30{fill:#f54600;}.cls-31{fill:#f54700;}.cls-32{fill:#f64800;}.cls-33{fill:#f64900;}.cls-34{fill:#f64a00;}.cls-35{fill:#f64b00;}.cls-36{fill:#f64c00;}.cls-37{fill:#f64d00;}.cls-38{fill:#f64e00;}.cls-39{fill:#f64f00;}.cls-40{fill:#f65000;}.cls-41{fill:#f65100;}.cls-42{fill:#f65200;}.cls-43{fill:#f65300;}.cls-44{fill:#f65400;}.cls-45{fill:#f65500;}.cls-46{fill:#f65600;}.cls-47{fill:#f65700;}.cls-48{fill:#f75800;}.cls-49{fill:#f75900;}.cls-50{fill:#f75a00;}.cls-51{fill:#f75b00;}.cls-52{fill:#f75c00;}.cls-53{fill:#f75d00;}.cls-54{fill:#f75e00;}.cls-55{fill:#f75f00;}.cls-56{fill:#f76000;}.cls-57{fill:#f76100;}.cls-58{fill:#f76200;}.cls-59{fill:#f76300;}.cls-60{fill:#f76400;}.cls-61{fill:#f76500;}.cls-62{fill:#f76600;}.cls-63{fill:#f86700;}.cls-64{fill:#f86800;}.cls-65{fill:#f86900;}.cls-66{fill:#f86a00;}.cls-67{fill:#f86b00;}.cls-68{fill:#f86c00;}.cls-69{fill:#f86d00;}.cls-70{fill:#f86e00;}.cls-71{fill:#f86f00;}.cls-72{fill:#f87000;}.cls-73{fill:#f87100;}.cls-74{fill:#f87200;}.cls-75{fill:#f87300;}.cls-76{fill:#f87400;}.cls-77{fill:#f87500;}.cls-78{fill:#f87600;}.cls-79{fill:#f97700;}.cls-80{fill:#f97800;}.cls-81{fill:#f97900;}.cls-82{fill:#f97a00;}.cls-83{fill:#f97b00;}.cls-84{fill:#f97c00;}.cls-85{fill:#f97d00;}.cls-86{fill:#f97e00;}.cls-87{fill:#f98000;}.cls-88{fill:#f98100;}.cls-89{fill:#f98200;}.cls-90{fill:#f98300;}.cls-91{fill:#f98400;}.cls-92{fill:#f98500;}.cls-93{fill:#f98600;}.cls-94{fill:#f98700;}.cls-95{fill:#fa8800;}.cls-96{fill:#fa8900;}.cls-97{fill:#fa8a00;}.cls-98{fill:#fa8b00;}.cls-99{fill:#fa8c00;}.cls-100{fill:#fa8d00;}.cls-101{fill:#fa8e00;}.cls-102{fill:#fa8f00;}.cls-103{fill:#fa9000;}.cls-104{fill:#fa9100;}.cls-105{fill:#fa9200;}.cls-106{fill:#fa9300;}.cls-107{fill:#fa9400;}.cls-108{fill:#fa9500;}.cls-109{fill:#fa9600;}.cls-110{fill:#fa9700;}.cls-111{fill:#fb9800;}.cls-112{fill:#fb9900;}.cls-113{fill:#fb9a00;}.cls-114{fill:#fb9b00;}.cls-115{fill:#fb9c00;}.cls-116{fill:#fb9d00;}.cls-117{fill:#fb9e00;}.cls-118{fill:#fb9f00;}.cls-119{fill:#fba000;}.cls-120{fill:#fba100;}.cls-121{fill:#fba200;}.cls-122{fill:#fba300;}.cls-123{fill:#fba400;}.cls-124{fill:#fba500;}.cls-125{fill:#fba600;}.cls-126{fill:#fca700;}.cls-127{fill:#fca800;}.cls-128{fill:#fca900;}.cls-129{fill:#fcaa00;}.cls-130{fill:#fcab00;}.cls-131{fill:#fcac00;}.cls-132{fill:#fcad00;}.cls-133{fill:#fcae00;}.cls-134{fill:#fcaf00;}.cls-135{fill:#fcb000;}.cls-136{fill:#fcb100;}.cls-137{fill:#fcb200;}.cls-138{fill:#fcb300;}.cls-139{fill:#fcb400;}.cls-140{fill:#fcb500;}.cls-141{fill:#fcb600;}.cls-142{fill:#fdb700;}.cls-143{fill:#fdb800;}.cls-144{fill:#fdb900;}.cls-145{fill:#fdba00;}.cls-146{fill:#fdbb00;}.cls-147{fill:#fdbc00;}.cls-148{fill:#fdbd00;}.cls-149{fill:#fdbe00;}.cls-150{fill:#fdbf00;}.cls-151{fill:#fdc000;}.cls-152{fill:#fdc100;}.cls-153{fill:#fdc200;}</style><clipPath id="clip-path"><circle class="cls-1" cx="736.62" cy="736.62" r="614.45"/></clipPath><clipPath id="clip-path-2"><path class="cls-2" d="M643.63,549.51S512.83,506.76,585.24,443c0,0-15.26,34.62,17.31,45.09,0,0-21.64-33.51-.46-60.94s-20-51.56-20-51.56,56.94-3.23,52.16,51.56c0,0,14.34-30.38-18.91-67.28-27.78-31.2,11.39-68.77,22.55-71.28-1.32.3-2.16,9.41-2.29,10.4-6.2,50.31,35.26,82.54,64.25,116.71,16.79,19.79,26.12,45.6,19.09,72C707,532.61,643.63,549.51,643.63,549.51Z"/></clipPath></defs><title>logo-circle</title><g id="Layer_2" data-name="Layer 2"><g id="Layer_1-2" data-name="Layer 1"><circle class="cls-3" cx="736.62" cy="736.62" r="736.62"/><circle class="cls-1" cx="736.62" cy="736.62" r="614.45"/><g class="cls-4"><polygon class="cls-1" points="122.17 1034.93 523.74 1351.06 122.17 1351.06 122.17 1034.93"/><polygon class="cls-1" points="122.17 972.74 602.75 1351.06 523.74 1351.06 122.17 1034.93 122.17 972.74"/><polygon class="cls-1" points="122.17 910.54 681.75 1351.06 602.75 1351.06 122.17 972.74 122.17 910.54"/><polygon class="cls-1" points="122.17 848.34 760.76 1351.06 681.75 1351.06 122.17 910.54 122.17 848.34"/><polygon class="cls-1" points="122.17 786.14 839.77 1351.06 760.76 1351.06 122.17 848.34 122.17 786.14"/><polygon class="cls-1" points="122.17 723.94 918.78 1351.06 839.77 1351.06 122.17 786.14 122.17 723.94"/><polygon class="cls-1" points="122.17 661.75 997.79 1351.06 918.78 1351.06 122.17 723.94 122.17 661.75"/><polygon class="cls-1" points="122.17 599.55 1076.79 1351.06 997.79 1351.06 122.17 661.75 122.17 599.55"/><polygon class="cls-1" points="122.17 537.35 1144.22 1341.94 1137.04 1351.06 1076.79 1351.06 122.17 599.55 122.17 537.35"/><polygon class="cls-1" points="122.17 475.15 1174.45 1303.54 1144.22 1341.94 122.17 537.35 122.17 475.15"/><polygon class="cls-1" points="122.17 412.95 1204.68 1265.14 1174.45 1303.54 122.17 475.15 122.17 412.95"/><polygon class="cls-1" points="122.17 394.03 143.2 367.31 1234.91 1226.74 1204.68 1265.14 122.17 412.95 122.17 394.03"/><rect class="cls-1" x="679.73" y="83.13" width="48.87" height="1389.4" transform="translate(-342.57 849.99) rotate(-51.79)"/><rect class="cls-1" x="709.96" y="44.73" width="48.87" height="1389.4" transform="translate(-300.87 859.09) rotate(-51.79)"/><rect class="cls-1" x="740.19" y="6.33" width="48.87" height="1389.4" transform="translate(-259.16 868.2) rotate(-51.79)"/><polygon class="cls-1" points="233.89 252.12 264.12 213.72 1351.06 1069.39 1351.06 1079.2 1325.6 1111.54 233.89 252.12"/><polygon class="cls-1" points="264.12 213.72 294.35 175.31 1351.06 1007.19 1351.06 1069.39 264.12 213.72"/><polygon class="cls-1" points="294.35 175.31 324.58 136.91 1351.06 945 1351.06 1007.19 294.35 175.31"/><polygon class="cls-1" points="324.58 136.91 336.19 122.17 384.86 122.17 1351.06 882.8 1351.06 945 324.58 136.91"/><polygon class="cls-1" points="463.87 122.17 1351.06 820.6 1351.06 882.8 384.86 122.17 463.87 122.17"/><polygon class="cls-1" points="542.87 122.17 1351.06 758.4 1351.06 820.6 463.87 122.17 542.87 122.17"/><polygon class="cls-1" points="621.88 122.17 1351.06 696.21 1351.06 758.4 542.87 122.17 621.88 122.17"/><polygon class="cls-1" points="700.89 122.17 1351.06 634.01 1351.06 696.21 621.88 122.17 700.89 122.17"/><polygon class="cls-1" points="779.9 122.17 1351.06 571.81 1351.06 634.01 700.89 122.17 779.9 122.17"/><polygon class="cls-1" points="858.9 122.17 1351.06 509.61 1351.06 571.81 779.9 122.17 858.9 122.17"/><polygon class="cls-1" points="937.91 122.17 1351.06 447.41 1351.06 509.61 858.9 122.17 937.91 122.17"/><polygon class="cls-1" points="1351.06 447.41 937.91 122.17 1351.06 122.17 1351.06 447.41"/></g><path class="cls-5" d="M283.23,1046.48a16.37,16.37,0,0,1-6.49-1.16,9.5,9.5,0,0,1-4.2-3.42,15,15,0,0,1-2.19-5.19,31.32,31.32,0,0,1-.66-6.83v-20.42a31.67,31.67,0,0,1,.65-6.85,14.72,14.72,0,0,1,2.16-5.12,9.33,9.33,0,0,1,4.29-3.38,18,18,0,0,1,6.77-1.13q7.13,0,10.2,3.76t3.08,11.27v1.86H292V1008q0-5.87-1.75-8.49c-1.17-1.76-3.37-2.63-6.59-2.63a10.57,10.57,0,0,0-3.81.61,6.25,6.25,0,0,0-4,4.22,15.11,15.11,0,0,0-.73,3.3,37.56,37.56,0,0,0-.18,4v21.45a28.55,28.55,0,0,0,.38,5.12,11,11,0,0,0,1.34,3.72,5.83,5.83,0,0,0,2.73,2.41,10.71,10.71,0,0,0,4.39.79q4.83,0,6.7-3t1.87-9.17v-6.18h-8.08v-3.62h12.85v25.27h-3.31l-.63-5.93Q290.85,1046.49,283.23,1046.48Z"/><path class="cls-5" d="M306,1045.79V993.55h12.48q7.31,0,10.46,3.35t3.14,9.85q0,10.8-7.64,12.32l8.5,26.72h-5.09l-8.05-25.68H311.2v25.68Zm5.19-29.31h7q5,0,6.92-2.31t1.95-7.42q0-5-1.85-7.28c-1.24-1.49-3.52-2.24-6.86-2.24H311.2Z"/><path class="cls-5" d="M337.82,1045.79l11.59-52.24h5.43l11.65,52.24h-5.07l-2.71-14H345.6l-2.78,14Zm8.51-17.55H358l-5.86-28.17Z"/><path class="cls-5" d="M385.89,1046.45a17.37,17.37,0,0,1-5.71-.85,11.21,11.21,0,0,1-4-2.27,10.85,10.85,0,0,1-2.5-3.56,17.42,17.42,0,0,1-1.32-4.47,33.23,33.23,0,0,1-.37-5.23V1009.3a34.79,34.79,0,0,1,.38-5.4,17.13,17.13,0,0,1,1.36-4.48,10.78,10.78,0,0,1,2.53-3.48,11,11,0,0,1,4-2.17,18.27,18.27,0,0,1,5.65-.79,16.53,16.53,0,0,1,6.15,1,9.27,9.27,0,0,1,4,3,12.91,12.91,0,0,1,2.16,4.63,25.79,25.79,0,0,1,.66,6.18V1011H394v-3a29.7,29.7,0,0,0-.3-4.63,10.78,10.78,0,0,0-1.14-3.42,5.14,5.14,0,0,0-2.48-2.3,10.06,10.06,0,0,0-4.16-.74,10.78,10.78,0,0,0-4.48.81,5.62,5.62,0,0,0-2.67,2.49,11.76,11.76,0,0,0-1.22,3.64,28.8,28.8,0,0,0-.34,4.84v22.18q0,6.09,1.91,8.86c1.27,1.85,3.53,2.77,6.8,2.77a9.78,9.78,0,0,0,3.48-.55,6.21,6.21,0,0,0,2.33-1.47,6.33,6.33,0,0,0,1.39-2.41,15.08,15.08,0,0,0,.7-3.09,34.25,34.25,0,0,0,.18-3.79v-3.41h4.9v3.06a32,32,0,0,1-.37,5.15,16.47,16.47,0,0,1-1.27,4.3,10,10,0,0,1-2.37,3.34,10.12,10.12,0,0,1-3.72,2.08A16.52,16.52,0,0,1,385.89,1046.45Z"/><path class="cls-5" d="M406.88,1045.79V993.55h19.83v3.78H412.07v19.56h12v3.66h-12v21.55h14.8v3.69Z"/><path class="cls-5" d="M448,1045.79V993.55h5.1v52.24Z"/><path class="cls-5" d="M462.76,1045.79V993.55h3.8L484,1034.1V993.55h4.44v52.24h-3.64l-17.61-41v41Z"/><path class="cls-5" d="M496.12,1026.6v-3.72h14.44v3.72Z"/><path class="cls-5" d="M531,1046.45a17.37,17.37,0,0,1-5.71-.85,11.21,11.21,0,0,1-4-2.27,10.85,10.85,0,0,1-2.5-3.56,17.42,17.42,0,0,1-1.32-4.47,33.23,33.23,0,0,1-.37-5.23V1009.3a34.79,34.79,0,0,1,.38-5.4,17.13,17.13,0,0,1,1.36-4.48,10.78,10.78,0,0,1,2.53-3.48,11,11,0,0,1,4-2.17A18.27,18.27,0,0,1,531,993a16.53,16.53,0,0,1,6.15,1,9.27,9.27,0,0,1,4,3,12.91,12.91,0,0,1,2.16,4.63,25.79,25.79,0,0,1,.66,6.18V1011h-4.9v-3a29.7,29.7,0,0,0-.3-4.63,10.78,10.78,0,0,0-1.14-3.42,5.18,5.18,0,0,0-2.48-2.3,10.06,10.06,0,0,0-4.16-.74,10.78,10.78,0,0,0-4.48.81,5.62,5.62,0,0,0-2.67,2.49,11.76,11.76,0,0,0-1.22,3.64,28.8,28.8,0,0,0-.34,4.84v22.18q0,6.09,1.91,8.86c1.27,1.85,3.53,2.77,6.8,2.77a9.78,9.78,0,0,0,3.48-.55,6.21,6.21,0,0,0,2.33-1.47,6.33,6.33,0,0,0,1.39-2.41,15.08,15.08,0,0,0,.7-3.09,34.25,34.25,0,0,0,.18-3.79v-3.41H544v3.06a32,32,0,0,1-.37,5.15,16.47,16.47,0,0,1-1.27,4.3,10,10,0,0,1-2.37,3.34,10.12,10.12,0,0,1-3.72,2.08A16.52,16.52,0,0,1,531,1046.45Z"/><path class="cls-5" d="M552,1045.79V993.55h5.19v23.15h17.28V993.55h5.2v52.24h-5.2v-25.46H557.2v25.46Z"/><path class="cls-5" d="M589.22,1045.79V993.55H601.7q7.31,0,10.46,3.35t3.14,9.85q0,10.8-7.65,12.32l8.51,26.72h-5.1l-8-25.68h-8.61v25.68Zm5.19-29.31h7c3.31,0,5.61-.77,6.92-2.31s1.95-4,1.95-7.42-.62-5.79-1.85-7.28-3.52-2.24-6.86-2.24h-7.15Z"/><path class="cls-5" d="M624.17,1045.79V993.55h5.1v52.24Z"/><path class="cls-5" d="M650.72,1046.42q-6.53,0-9.88-3.74c-2.24-2.48-3.54-6-3.89-10.44l4.6-1.26c.16,1.39.35,2.61.58,3.67a16.29,16.29,0,0,0,1,3.12,8.12,8.12,0,0,0,1.65,2.5,7.09,7.09,0,0,0,2.49,1.58,9.25,9.25,0,0,0,3.46.6q7.74,0,7.74-7.56a11,11,0,0,0-.44-3.14,10.4,10.4,0,0,0-1.43-2.87,21.1,21.1,0,0,0-2-2.53c-.72-.76-1.65-1.67-2.8-2.74l-9.73-8.89a13.87,13.87,0,0,1-5-10.52c0-3.55,1.11-6.31,3.33-8.26s5.23-2.94,9-3h.23q6,0,9.17,3.09c2.17,2.1,3.42,5.49,3.78,10.17l-4.37,1.08q-.47-5.3-2.39-7.94c-1.23-1.68-3.22-2.53-6-2.53h-.4a9.14,9.14,0,0,0-5.68,1.8,6.28,6.28,0,0,0-2.07,5.14,8.49,8.49,0,0,0,.88,3.89,13.5,13.5,0,0,0,3,3.7l9.67,8.73a32.41,32.41,0,0,1,5.89,6.88,14.06,14.06,0,0,1,2.16,7.55q0,5.7-3.46,8.79A13.24,13.24,0,0,1,650.72,1046.42Z"/><path class="cls-5" d="M676.08,1045.79V997.33h-11v-3.78h27v3.78H681.28v48.46Z"/><path class="cls-5" d="M710.31,1045.79V993.55h19.8v3.68h-14.6v19.63h12.15v3.66H715.51v25.27Z"/><path class="cls-5" d="M736.46,1045.79V993.55h19.83v3.78H741.66v19.56h12v3.66h-12v21.55h14.8v3.69Z"/><path class="cls-5" d="M763.48,1045.79V993.55h5.19v48.55H784.3v3.69Z"/><path class="cls-5" d="M789.4,1045.79V993.55h5.2v48.55h15.62v3.69Z"/><path class="cls-5" d="M828.33,1046.45a17.71,17.71,0,0,1-6.77-1.15,9.74,9.74,0,0,1-4.37-3.37,14.63,14.63,0,0,1-2.27-5,27.69,27.69,0,0,1-.69-6.54v-21.68a25.89,25.89,0,0,1,.71-6.46,13.46,13.46,0,0,1,2.32-4.9,10,10,0,0,1,4.38-3.23,20.89,20.89,0,0,1,13.38,0,9.91,9.91,0,0,1,4.38,3.25,13.75,13.75,0,0,1,2.32,4.91,26.23,26.23,0,0,1,.71,6.43v21.74a31.32,31.32,0,0,1-.41,5.29,16.24,16.24,0,0,1-1.43,4.42,10.89,10.89,0,0,1-2.59,3.42,11.48,11.48,0,0,1-4,2.14A18.92,18.92,0,0,1,828.33,1046.45Zm-4.44-4.74a13.16,13.16,0,0,0,8.87,0,5.81,5.81,0,0,0,2.74-2.32,10.6,10.6,0,0,0,1.32-3.43,23.7,23.7,0,0,0,.38-4.54v-23.63a23.33,23.33,0,0,0-.38-4.52,10.29,10.29,0,0,0-1.32-3.39,5.63,5.63,0,0,0-2.74-2.25,13.66,13.66,0,0,0-8.87,0,5.65,5.65,0,0,0-2.73,2.25,10.08,10.08,0,0,0-1.32,3.39,22.57,22.57,0,0,0-.38,4.52v23.63a22.92,22.92,0,0,0,.38,4.54,10.38,10.38,0,0,0,1.32,3.43A5.83,5.83,0,0,0,823.89,1041.71Z"/><path class="cls-5" d="M857.79,1045.79l-9.33-52.21,4.43,0,7.22,42.41,8.31-41.63h4.27l8.44,41.69,6.72-42.47h4.37l-8.87,52.24h-4l-8.71-43.14L862,1045.79Z"/><path class="cls-5" d="M911.09,1046.42q-6.52,0-9.88-3.74c-2.24-2.48-3.54-6-3.89-10.44l4.6-1.26a35.14,35.14,0,0,0,.58,3.67,15.62,15.62,0,0,0,1,3.12,8.12,8.12,0,0,0,1.65,2.5,7.14,7.14,0,0,0,2.48,1.58,9.33,9.33,0,0,0,3.46.6q7.75,0,7.75-7.56a10.64,10.64,0,0,0-.45-3.14,10.37,10.37,0,0,0-1.42-2.87,22.12,22.12,0,0,0-2-2.53c-.72-.76-1.65-1.67-2.8-2.74l-9.73-8.89a13.87,13.87,0,0,1-5-10.52c0-3.55,1.11-6.31,3.33-8.26s5.22-2.94,9-3H910q6,0,9.17,3.09t3.77,10.17l-4.37,1.08q-.47-5.3-2.38-7.94c-1.24-1.68-3.22-2.53-6-2.53h-.4a9.13,9.13,0,0,0-5.67,1.8,6.28,6.28,0,0,0-2.07,5.14,8.49,8.49,0,0,0,.88,3.89,13.5,13.5,0,0,0,3,3.7l9.67,8.73a32.7,32.7,0,0,1,5.89,6.88,14.14,14.14,0,0,1,2.15,7.55q0,5.7-3.46,8.79A13.22,13.22,0,0,1,911.09,1046.42Z"/><path class="cls-5" d="M930.52,1045.79V993.55h5.2v23.15H953V993.55h5.2v52.24H953v-25.46H935.72v25.46Z"/><path class="cls-5" d="M968,1045.79V993.55h5.1v52.24Z"/><path class="cls-5" d="M982.76,1045.79V993.55h13.18a17.57,17.57,0,0,1,6.19,1,9.2,9.2,0,0,1,4.07,2.85,11.86,11.86,0,0,1,2.15,4.34,22,22,0,0,1,.66,5.67,18.54,18.54,0,0,1-.71,5.31,12.53,12.53,0,0,1-2.22,4.31,9.8,9.8,0,0,1-4.07,3,15.4,15.4,0,0,1-6,1.07h-8v24.74Zm5.2-28.39h6.59q5.06,0,7.23-2.22c1.44-1.48,2.17-4.07,2.17-7.77,0-4-.64-6.72-1.92-8.11s-3.75-2.1-7.42-2.1H988Z"/><path class="cls-5" d="M1035.3,1045.79V997.33h-11v-3.78h27v3.78H1040.5v48.46Z"/><path class="cls-5" d="M1055.69,1045.79V993.55h19.83v3.78h-14.63v19.56h12v3.66h-12v21.55h14.79v3.69Z"/><path class="cls-5" d="M1082.24,1045.79l1.42-52.24h5.07l10.92,45.34,11-45.34h5.2l1.36,52.24h-4.31l-1.05-41.66-10.5,41.66H1098l-10.36-41.56-1.06,41.56Z"/><path class="cls-5" d="M1126.27,1045.79V993.55h13.17a17.53,17.53,0,0,1,6.19,1,9.23,9.23,0,0,1,4.08,2.85,11.86,11.86,0,0,1,2.15,4.34,22,22,0,0,1,.66,5.67,18.89,18.89,0,0,1-.71,5.31,12.89,12.89,0,0,1-2.22,4.31,9.8,9.8,0,0,1-4.07,3,15.4,15.4,0,0,1-6,1.07h-8v24.74Zm5.2-28.39h6.58q5.07,0,7.24-2.22c1.44-1.48,2.17-4.07,2.17-7.77,0-4-.64-6.72-1.92-8.11s-3.76-2.1-7.42-2.1h-6.65Z"/><path class="cls-5" d="M1159,1045.79V993.55h5.2v48.55h15.63v3.69Z"/><path class="cls-5" d="M1185,1045.79V993.55h19.83v3.78h-14.63v19.56h12v3.66h-12v21.55H1205v3.69Z"/><path class="cls-5" d="M389,964.51q-33.86,0-57.89-10.88t-38-31.83q-14-21-20.29-48.36t-6.31-63.39V662q0-29.55,4.17-52.92a162.88,162.88,0,0,1,13.7-43,97.69,97.69,0,0,1,24.84-32.51q15.31-12.89,38.15-20t52.92-7.12q29,0,51.3,6.18t37.21,17.19a87.8,87.8,0,0,1,24.31,27.54,122.41,122.41,0,0,1,13.43,36,216.07,216.07,0,0,1,4,43.66v28.2H434.41V629.53q0-10.2-.4-16.65a92.59,92.59,0,0,0-2.15-14.24q-1.75-7.78-5.1-12.09a27.25,27.25,0,0,0-9.67-7.38q-6.31-3.09-15.45-3.09-9.4,0-16,3.49A28.13,28.13,0,0,0,375.58,588a39.11,39.11,0,0,0-5.5,13.3,86.25,86.25,0,0,0-2.42,15.18q-.41,6.84-.4,16.79V837.18q0,26.6,7.92,42t28.88,15.45q38.69,0,38.68-59.37v-50H402.45V726.51h129.2V958.06H466.38l-5.64-37.34Q441.12,964.5,389,964.51Z"/><path class="cls-5" d="M593.17,958.06V606.41h98.32V958.06Z"/><path class="cls-5" d="M757.57,958.06V606.41H950.44L920.23,673.3H855.89v69.78h94.44l.11,68.76H855.89V958.06Z"/><polygon class="cls-6" points="1207.21 606.41 1114.84 606.41 1114.84 506.5 1016.52 506.5 1016.52 606.41 990.26 606.41 960.05 673.29 1016.52 673.29 1016.52 958.06 1114.84 958.06 1114.84 673.29 1207.21 673.29 1207.21 606.41"/><g class="cls-7"><polygon class="cls-8" points="512.83 541.28 717.19 549.5 512.83 549.5 512.83 541.28"/><polygon class="cls-8" points="512.83 539.48 724.45 548 724.39 549.5 717.19 549.5 512.83 541.28 512.83 539.48"/><polygon class="cls-9" points="512.83 537.68 724.52 546.2 724.45 548 512.83 539.48 512.83 537.68"/><polygon class="cls-10" points="512.83 535.88 724.59 544.4 724.52 546.2 512.83 537.68 512.83 535.88"/><polygon class="cls-11" points="512.83 534.08 724.66 542.6 724.59 544.4 512.83 535.88 512.83 534.08"/><polygon class="cls-12" points="512.83 532.27 724.74 540.8 724.66 542.6 512.83 534.08 512.83 532.27"/><polygon class="cls-13" points="512.83 530.47 724.81 539 724.74 540.8 512.83 532.27 512.83 530.47"/><polygon class="cls-14" points="512.83 528.67 724.88 537.21 724.81 539 512.83 530.47 512.83 528.67"/><polygon class="cls-15" points="512.83 526.87 724.95 535.41 724.88 537.21 512.83 528.67 512.83 526.87"/><polygon class="cls-16" points="512.83 525.07 725.03 533.61 724.95 535.41 512.83 526.87 512.83 525.07"/><polygon class="cls-17" points="512.83 523.27 725.1 531.81 725.03 533.61 512.83 525.07 512.83 523.27"/><polygon class="cls-18" points="512.83 521.47 725.17 530.01 725.1 531.81 512.83 523.27 512.83 521.47"/><polygon class="cls-19" points="512.83 519.67 725.24 528.21 725.17 530.01 512.83 521.47 512.83 519.67"/><polygon class="cls-20" points="512.83 517.87 725.32 526.42 725.24 528.21 512.83 519.67 512.83 517.87"/><polygon class="cls-21" points="512.83 516.06 725.39 524.62 725.32 526.42 512.83 517.87 512.83 516.06"/><polygon class="cls-22" points="512.83 514.26 725.46 522.82 725.39 524.62 512.83 516.06 512.83 514.26"/><polygon class="cls-23" points="512.83 512.46 725.53 521.02 725.46 522.82 512.83 514.26 512.83 512.46"/><polygon class="cls-24" points="512.83 510.66 725.61 519.22 725.53 521.02 512.83 512.46 512.83 510.66"/><polygon class="cls-25" points="512.83 508.86 725.68 517.42 725.61 519.22 512.83 510.66 512.83 508.86"/><polygon class="cls-26" points="512.83 507.06 725.75 515.63 725.68 517.42 512.83 508.86 512.83 507.06"/><polygon class="cls-27" points="512.83 505.26 725.82 513.83 725.75 515.63 512.83 507.06 512.83 505.26"/><polygon class="cls-28" points="512.83 503.45 725.89 512.03 725.82 513.83 512.83 505.26 512.83 503.45"/><polygon class="cls-29" points="512.83 501.65 725.93 510.23 725.93 511.05 725.89 512.03 512.83 503.45 512.83 501.65"/><polygon class="cls-30" points="512.83 499.85 725.93 508.43 725.93 510.23 512.83 501.65 512.83 499.85"/><polygon class="cls-31" points="512.83 498.05 725.93 506.63 725.93 508.43 512.83 499.85 512.83 498.05"/><polygon class="cls-32" points="512.83 496.25 725.93 504.83 725.93 506.63 512.83 498.05 512.83 496.25"/><polygon class="cls-33" points="512.83 494.45 725.93 503.02 725.93 504.83 512.83 496.25 512.83 494.45"/><polygon class="cls-34" points="512.83 492.65 725.93 501.22 725.93 503.02 512.83 494.45 512.83 492.65"/><polygon class="cls-35" points="512.83 490.85 725.93 499.42 725.93 501.22 512.83 492.65 512.83 490.85"/><polygon class="cls-36" points="512.83 489.05 725.93 497.62 725.93 499.42 512.83 490.85 512.83 489.05"/><polygon class="cls-37" points="512.83 487.24 725.93 495.82 725.93 497.62 512.83 489.05 512.83 487.24"/><polygon class="cls-38" points="512.83 485.44 725.93 494.02 725.93 495.82 512.83 487.24 512.83 485.44"/><polygon class="cls-39" points="512.83 483.64 725.93 492.22 725.93 494.02 512.83 485.44 512.83 483.64"/><polygon class="cls-40" points="512.83 481.84 725.93 490.42 725.93 492.22 512.83 483.64 512.83 481.84"/><polygon class="cls-41" points="512.83 480.04 725.93 488.62 725.93 490.42 512.83 481.84 512.83 480.04"/><polygon class="cls-42" points="512.83 478.24 725.93 486.81 725.93 488.62 512.83 480.04 512.83 478.24"/><polygon class="cls-43" points="512.83 476.44 725.93 485.01 725.93 486.81 512.83 478.24 512.83 476.44"/><polygon class="cls-44" points="512.83 474.63 725.93 483.21 725.93 485.01 512.83 476.44 512.83 474.63"/><polygon class="cls-45" points="512.83 472.83 725.93 481.41 725.93 483.21 512.83 474.63 512.83 472.83"/><polygon class="cls-46" points="512.83 471.03 725.93 479.61 725.93 481.41 512.83 472.83 512.83 471.03"/><polygon class="cls-47" points="512.83 469.23 725.93 477.81 725.93 479.61 512.83 471.03 512.83 469.23"/><polygon class="cls-48" points="512.83 467.43 725.93 476.01 725.93 477.81 512.83 469.23 512.83 467.43"/><polygon class="cls-49" points="512.83 465.63 725.93 474.2 725.93 476.01 512.83 467.43 512.83 465.63"/><polygon class="cls-50" points="512.83 463.83 725.93 472.4 725.93 474.2 512.83 465.63 512.83 463.83"/><polygon class="cls-51" points="512.83 462.03 725.93 470.6 725.93 472.4 512.83 463.83 512.83 462.03"/><polygon class="cls-52" points="512.83 460.23 725.93 468.8 725.93 470.6 512.83 462.03 512.83 460.23"/><polygon class="cls-53" points="512.83 458.42 725.93 467 725.93 468.8 512.83 460.23 512.83 458.42"/><polygon class="cls-54" points="512.83 457.02 512.84 456.62 725.93 465.2 725.93 467 512.83 458.42 512.83 457.02"/><polygon class="cls-55" points="512.84 456.62 512.91 454.82 725.93 463.4 725.93 465.2 512.84 456.62"/><polygon class="cls-56" points="512.91 454.82 512.99 453.03 725.93 461.6 725.93 463.4 512.91 454.82"/><polygon class="cls-57" points="512.99 453.03 513.06 451.23 725.93 459.8 725.93 461.6 512.99 453.03"/><polygon class="cls-58" points="513.06 451.23 513.13 449.43 725.93 457.99 725.93 459.8 513.06 451.23"/><polygon class="cls-59" points="513.13 449.43 513.2 447.63 725.93 456.19 725.93 457.99 513.13 449.43"/><polygon class="cls-60" points="513.2 447.63 513.28 445.83 725.93 454.39 725.93 456.19 513.2 447.63"/><polygon class="cls-61" points="513.28 445.83 513.35 444.04 725.93 452.59 725.93 454.39 513.28 445.83"/><polygon class="cls-62" points="513.35 444.04 513.42 442.24 725.93 450.79 725.93 452.59 513.35 444.04"/><polygon class="cls-63" points="513.42 442.24 513.49 440.44 725.93 448.99 725.93 450.79 513.42 442.24"/><polygon class="cls-64" points="513.49 440.44 513.57 438.64 725.93 447.19 725.93 448.99 513.49 440.44"/><polygon class="cls-65" points="513.57 438.64 513.64 436.84 725.93 445.38 725.93 447.19 513.57 438.64"/><polygon class="cls-66" points="513.64 436.84 513.71 435.04 725.93 443.58 725.93 445.38 513.64 436.84"/><polygon class="cls-67" points="513.71 435.04 513.78 433.25 725.93 441.78 725.93 443.58 513.71 435.04"/><polygon class="cls-68" points="513.78 433.25 513.85 431.45 725.93 439.98 725.93 441.78 513.78 433.25"/><polygon class="cls-69" points="513.85 431.45 513.93 429.65 725.93 438.18 725.93 439.98 513.85 431.45"/><polygon class="cls-70" points="513.93 429.65 514 427.85 725.93 436.38 725.93 438.18 513.93 429.65"/><polygon class="cls-71" points="514 427.85 514.07 426.05 725.93 434.58 725.93 436.38 514 427.85"/><polygon class="cls-72" points="514.07 426.05 514.14 424.25 725.93 432.78 725.93 434.58 514.07 426.05"/><polygon class="cls-73" points="514.14 424.25 514.22 422.45 725.93 430.98 725.93 432.78 514.14 424.25"/><polygon class="cls-74" points="514.22 422.45 514.29 420.66 725.93 429.17 725.93 430.98 514.22 422.45"/><polygon class="cls-75" points="514.29 420.66 514.36 418.86 725.93 427.37 725.93 429.17 514.29 420.66"/><polygon class="cls-76" points="514.36 418.86 514.43 417.06 725.93 425.57 725.93 427.37 514.36 418.86"/><polygon class="cls-77" points="514.43 417.06 514.51 415.26 725.93 423.77 725.93 425.57 514.43 417.06"/><polygon class="cls-78" points="514.51 415.26 514.58 413.46 725.93 421.97 725.93 423.77 514.51 415.26"/><polygon class="cls-79" points="514.58 413.46 514.65 411.67 725.93 420.17 725.93 421.97 514.58 413.46"/><polygon class="cls-80" points="514.65 411.67 514.72 409.87 725.93 418.37 725.93 420.17 514.65 411.67"/><polygon class="cls-81" points="514.72 409.87 514.79 408.07 725.93 416.56 725.93 418.37 514.72 409.87"/><polygon class="cls-82" points="514.79 408.07 514.87 406.27 725.93 414.76 725.93 416.56 514.79 408.07"/><polygon class="cls-83" points="514.87 406.27 514.94 404.47 725.93 412.96 725.93 414.76 514.87 406.27"/><polygon class="cls-84" points="514.94 404.47 515.01 402.67 725.93 411.16 725.93 412.96 514.94 404.47"/><polygon class="cls-85" points="515.01 402.67 515.09 400.88 725.93 409.36 725.93 411.16 515.01 402.67"/><polygon class="cls-86" points="515.09 400.88 515.16 399.08 725.93 407.56 725.93 409.36 515.09 400.88"/><polygon class="cls-87" points="515.16 399.08 515.23 397.28 725.93 405.76 725.93 407.56 515.16 399.08"/><polygon class="cls-88" points="515.23 397.28 515.3 395.48 725.93 403.96 725.93 405.76 515.23 397.28"/><polygon class="cls-89" points="515.3 395.48 515.37 393.68 725.93 402.15 725.93 403.96 515.3 395.48"/><polygon class="cls-90" points="515.37 393.68 515.45 391.88 725.93 400.35 725.93 402.15 515.37 393.68"/><polygon class="cls-91" points="515.45 391.88 515.52 390.08 725.93 398.55 725.93 400.35 515.45 391.88"/><polygon class="cls-92" points="515.52 390.08 515.59 388.29 725.93 396.75 725.93 398.55 515.52 390.08"/><polygon class="cls-93" points="515.59 388.29 515.66 386.49 725.93 394.95 725.93 396.75 515.59 388.29"/><polygon class="cls-94" points="515.66 386.49 515.74 384.69 725.93 393.15 725.93 394.95 515.66 386.49"/><polygon class="cls-95" points="515.74 384.69 515.81 382.89 725.93 391.35 725.93 393.15 515.74 384.69"/><polygon class="cls-96" points="515.81 382.89 515.88 381.09 725.93 389.55 725.93 391.35 515.81 382.89"/><polygon class="cls-97" points="515.88 381.09 515.95 379.3 725.93 387.75 725.93 389.55 515.88 381.09"/><polygon class="cls-98" points="515.95 379.3 516.03 377.5 725.93 385.94 725.93 387.75 515.95 379.3"/><polygon class="cls-99" points="516.03 377.5 516.1 375.7 725.93 384.14 725.93 385.94 516.03 377.5"/><polygon class="cls-100" points="516.1 375.7 516.17 373.9 725.93 382.34 725.93 384.14 516.1 375.7"/><polygon class="cls-101" points="516.17 373.9 516.24 372.1 725.93 380.54 725.93 382.34 516.17 373.9"/><polygon class="cls-102" points="516.24 372.1 516.32 370.3 725.93 378.74 725.93 380.54 516.24 372.1"/><polygon class="cls-103" points="516.32 370.3 516.39 368.5 725.93 376.94 725.93 378.74 516.32 370.3"/><polygon class="cls-104" points="516.39 368.5 516.46 366.71 725.93 375.14 725.93 376.94 516.39 368.5"/><polygon class="cls-105" points="516.46 366.71 516.53 364.91 725.93 373.33 725.93 375.14 516.46 366.71"/><polygon class="cls-106" points="516.53 364.91 516.6 363.11 725.93 371.53 725.93 373.33 516.53 364.91"/><polygon class="cls-107" points="516.6 363.11 516.68 361.31 725.93 369.73 725.93 371.53 516.6 363.11"/><polygon class="cls-108" points="516.68 361.31 516.75 359.51 725.93 367.93 725.93 369.73 516.68 361.31"/><polygon class="cls-109" points="516.75 359.51 516.82 357.71 725.93 366.13 725.93 367.93 516.75 359.51"/><polygon class="cls-110" points="516.82 357.71 516.89 355.92 725.93 364.33 725.93 366.13 516.82 357.71"/><polygon class="cls-111" points="516.89 355.92 516.97 354.12 725.93 362.53 725.93 364.33 516.89 355.92"/><polygon class="cls-112" points="516.97 354.12 517.04 352.32 725.93 360.73 725.93 362.53 516.97 354.12"/><polygon class="cls-113" points="517.04 352.32 517.11 350.52 725.93 358.93 725.93 360.73 517.04 352.32"/><polygon class="cls-114" points="517.11 350.52 517.18 348.72 725.93 357.12 725.93 358.93 517.11 350.52"/><polygon class="cls-115" points="517.18 348.72 517.26 346.93 725.93 355.32 725.93 357.12 517.18 348.72"/><polygon class="cls-116" points="517.26 346.93 517.33 345.13 725.93 353.52 725.93 355.32 517.26 346.93"/><polygon class="cls-117" points="517.33 345.13 517.4 343.33 725.93 351.72 725.93 353.52 517.33 345.13"/><polygon class="cls-118" points="517.4 343.33 517.47 341.53 725.93 349.92 725.93 351.72 517.4 343.33"/><polygon class="cls-119" points="517.47 341.53 517.54 339.73 725.93 348.12 725.93 349.92 517.47 341.53"/><polygon class="cls-120" points="517.54 339.73 517.62 337.93 725.93 346.32 725.93 348.12 517.54 339.73"/><polygon class="cls-121" points="517.62 337.93 517.69 336.13 725.93 344.51 725.93 346.32 517.62 337.93"/><polygon class="cls-122" points="517.69 336.13 517.76 334.34 725.93 342.71 725.93 344.51 517.69 336.13"/><polygon class="cls-123" points="517.76 334.34 517.84 332.54 725.93 340.91 725.93 342.71 517.76 334.34"/><polygon class="cls-124" points="517.84 332.54 517.91 330.74 725.93 339.11 725.93 340.91 517.84 332.54"/><polygon class="cls-125" points="517.91 330.74 517.98 328.94 725.93 337.31 725.93 339.11 517.91 330.74"/><polygon class="cls-126" points="517.98 328.94 518.05 327.14 725.93 335.51 725.93 337.31 517.98 328.94"/><polygon class="cls-127" points="518.05 327.14 518.12 325.35 725.93 333.71 725.93 335.51 518.05 327.14"/><polygon class="cls-128" points="518.12 325.35 518.2 323.55 725.93 331.91 725.93 333.71 518.12 325.35"/><polygon class="cls-129" points="518.2 323.55 518.27 321.75 725.93 330.11 725.93 331.91 518.2 323.55"/><polygon class="cls-130" points="518.27 321.75 518.34 319.95 725.93 328.3 725.93 330.11 518.27 321.75"/><polygon class="cls-131" points="518.34 319.95 518.41 318.15 725.93 326.5 725.93 328.3 518.34 319.95"/><polygon class="cls-132" points="518.41 318.15 518.49 316.35 725.93 324.7 725.93 326.5 518.41 318.15"/><polygon class="cls-133" points="518.49 316.35 518.56 314.56 725.93 322.9 725.93 324.7 518.49 316.35"/><polygon class="cls-134" points="518.56 314.56 518.63 312.76 725.93 321.1 725.93 322.9 518.56 314.56"/><polygon class="cls-135" points="518.63 312.76 518.7 310.96 725.93 319.3 725.93 321.1 518.63 312.76"/><polygon class="cls-136" points="518.7 310.96 518.77 309.16 725.93 317.5 725.93 319.3 518.7 310.96"/><polygon class="cls-137" points="518.77 309.16 518.85 307.36 725.93 315.69 725.93 317.5 518.77 309.16"/><polygon class="cls-138" points="518.85 307.36 518.92 305.56 725.93 313.89 725.93 315.69 518.85 307.36"/><polygon class="cls-139" points="518.92 305.56 518.99 303.76 725.93 312.09 725.93 313.89 518.92 305.56"/><polygon class="cls-140" points="518.99 303.76 519.07 301.97 725.93 310.29 725.93 312.09 518.99 303.76"/><polygon class="cls-141" points="519.07 301.97 519.14 300.17 725.93 308.49 725.93 310.29 519.07 301.97"/><polygon class="cls-142" points="519.14 300.17 519.21 298.37 725.93 306.69 725.93 308.49 519.14 300.17"/><polygon class="cls-143" points="519.21 298.37 519.28 296.57 725.93 304.89 725.93 306.69 519.21 298.37"/><polygon class="cls-144" points="519.28 296.57 519.35 294.77 725.93 303.09 725.93 304.89 519.28 296.57"/><polygon class="cls-145" points="519.35 294.77 519.43 292.97 725.93 301.29 725.93 303.09 519.35 294.77"/><polygon class="cls-146" points="519.43 292.97 519.5 291.18 725.93 299.48 725.93 301.29 519.43 292.97"/><polygon class="cls-147" points="519.5 291.18 519.57 289.38 725.93 297.68 725.93 299.48 519.5 291.18"/><polygon class="cls-148" points="519.57 289.38 519.6 288.6 545.03 288.6 725.93 295.88 725.93 297.68 519.57 289.38"/><polygon class="cls-149" points="589.79 288.6 725.93 294.08 725.93 295.88 545.03 288.6 589.79 288.6"/><polygon class="cls-150" points="634.55 288.6 725.93 292.28 725.93 294.08 589.79 288.6 634.55 288.6"/><polygon class="cls-151" points="679.31 288.6 725.93 290.48 725.93 292.28 634.55 288.6 679.31 288.6"/><polygon class="cls-152" points="724.07 288.6 725.93 288.68 725.93 290.48 679.31 288.6 724.07 288.6"/><polygon class="cls-153" points="725.93 288.68 724.07 288.6 725.93 288.6 725.93 288.68"/></g><path class="cls-1" d="M204.18,1121a13.83,13.83,0,0,1,2.7,10.24q-.74,5.51-6.19,9.44t-11,3a13.72,13.72,0,0,1-8.92-5.74,13.89,13.89,0,0,1-2.67-10.31q.77-5.57,6.24-9.54c3.64-2.62,7.27-3.59,10.92-2.9A13.91,13.91,0,0,1,204.18,1121Z"/><path class="cls-1" d="M183.48,1056.9l-50.9,28.79,5.41,9.58-9,5.09-17.64-31.18,9-5.09,5.33,9.43,50.9-28.79Z"/><path class="cls-1" d="M165.9,1025.09l-62.35,29.1-5.94-12.71,25.58-11.94-5.13-11L92.49,1030.5l-5.93-12.71,62.35-29.11,5.94,12.72-27.72,12.93,5.12,11L160,1012.38Z"/><path class="cls-1" d="M143,973.82,78.52,998,68,969.91l9.1-3.41,5.6,15,17.06-6.39-4.35-11.62,9.17-3.44,4.36,11.62,20.17-7.55L123.44,949l8.94-3.35Z"/><path class="cls-1" d="M118.78,901.14,53.83,925.57l-2.7-11.51,39.76-14.23-42.26,3.56L46.5,894.3l39.26-15.81-41.82,4.9L41.27,872l69-6.93L113,876.53,72.2,893,116,889.46Z"/><path class="cls-1" d="M106.22,843.24,38,852.51l-1.89-13.9,28-3.8-1.64-12-28,3.8-1.89-13.9,68.18-9.27,1.89,13.9-30.31,4.12,1.64,12,30.31-4.12Z"/><path class="cls-1" d="M99.34,768.28a26.76,26.76,0,0,1-1,9.61,14.24,14.24,0,0,1-4.21,6.5,19.17,19.17,0,0,1-6.9,3.75,38.72,38.72,0,0,1-9.52,1.52l-25.37,1.25a38.26,38.26,0,0,1-9.61-.59,18.69,18.69,0,0,1-7.15-3.06,14.26,14.26,0,0,1-4.74-6.06,26.82,26.82,0,0,1-2-9.46q-.54-10.9,4.91-15.93t16.55-5.57L75.66,749q11.11-.56,17.13,3.91T99.34,768.28Zm-10.46,3.21a6.36,6.36,0,0,0,.39-2.72,6.58,6.58,0,0,0-.66-2.69,4.73,4.73,0,0,0-1.39-1.71,5.68,5.68,0,0,0-2.12-.92,12.63,12.63,0,0,0-2.49-.35q-1.19,0-2.85,0L47.6,764.71c-1.11,0-2.05.13-2.84.24a12.39,12.39,0,0,0-2.4.6,5.63,5.63,0,0,0-2,1.11,4.88,4.88,0,0,0-1.18,1.85,6.81,6.81,0,0,0-.36,2.73,6.48,6.48,0,0,0,.63,2.67,4.55,4.55,0,0,0,1.35,1.68,5.46,5.46,0,0,0,2.08.88,13.74,13.74,0,0,0,2.44.34c.78,0,1.72,0,2.83,0l32.17-1.58c1.1-.05,2-.13,2.83-.24a13.85,13.85,0,0,0,2.44-.58,5.63,5.63,0,0,0,2-1.07A4.69,4.69,0,0,0,88.88,771.49Z"/><path class="cls-1" d="M97.53,733.11,28.74,731.3l.37-14,59.24,1.57.43-16.06,9.54.25Z"/><path class="cls-1" d="M99.17,690.63l-68.52-6.38,2.78-29.83,9.67.9-1.48,15.91,18.14,1.69,1.15-12.36,9.75.91-1.15,12.36,21.45,2,1.5-16.07,9.5.88Z"/><path class="cls-1" d="M112.54,603.81a21.2,21.2,0,0,1-3.46,8.22,13.63,13.63,0,0,1-6,4.66,21.88,21.88,0,0,1-7.94,1.5,44.61,44.61,0,0,1-9.88-1.12l-22.16-4.75a51.47,51.47,0,0,1-8-2.32,24.72,24.72,0,0,1-6.08-3.41,15.09,15.09,0,0,1-4.13-4.7,16.23,16.23,0,0,1-1.8-6.27,26.61,26.61,0,0,1,.61-8.08A28.29,28.29,0,0,1,47,578.77a13.6,13.6,0,0,1,5.24-5.13,16.77,16.77,0,0,1,6.86-1.89,31.3,31.3,0,0,1,8.49.78l3.81.82L68.6,586.62l-4.55-1q-1.86-.4-3.06-.57a13.89,13.89,0,0,0-2.54-.13,5.26,5.26,0,0,0-2.21.51,4.7,4.7,0,0,0-1.56,1.42,6.92,6.92,0,0,0-1,2.56,6.3,6.3,0,0,0,0,2.93,5,5,0,0,0,1,2,6.58,6.58,0,0,0,2.13,1.45,15.52,15.52,0,0,0,2.59,1c.78.21,1.8.45,3.07.73l29.18,6.25c3.27.7,5.86.79,7.75.26s3.11-2,3.63-4.44,0-4.37-1.64-5.72a17.57,17.57,0,0,0-7.5-3.12l-6.62-1.41L85.86,596l-8.45-1.81,4.07-19,34.61,7.42-1.92,9-6.36-.43Q114.26,595.77,112.54,603.81Z"/><path class="cls-1" d="M126.37,550a26.78,26.78,0,0,1-4.23,8.69,14.26,14.26,0,0,1-6.17,4.69,19.16,19.16,0,0,1-7.76,1.19,38.23,38.23,0,0,1-9.48-1.78l-24.29-7.41a38,38,0,0,1-8.84-3.8,18.66,18.66,0,0,1-5.7-5.3A14.26,14.26,0,0,1,57.49,539a27,27,0,0,1,1.35-9.57Q62,519,68.85,516.09t17.47.36l24.29,7.41q10.65,3.24,14.79,9.47T126.37,550Zm-10.93-.51a6.37,6.37,0,0,0,1.28-2.43,6.46,6.46,0,0,0,.3-2.75,4.8,4.8,0,0,0-.73-2.09,5.77,5.77,0,0,0-1.69-1.58,13.32,13.32,0,0,0-2.22-1.18c-.74-.29-1.63-.6-2.69-.93l-30.81-9.39c-1-.32-2-.57-2.75-.73a11.4,11.4,0,0,0-2.46-.25,5.55,5.55,0,0,0-2.22.38,4.81,4.81,0,0,0-1.73,1.34,6.82,6.82,0,0,0-1.27,2.45,6.58,6.58,0,0,0-.31,2.73,4.61,4.61,0,0,0,.7,2,5.63,5.63,0,0,0,1.66,1.52,12.85,12.85,0,0,0,2.19,1.15c.72.29,1.61.6,2.67.92l30.81,9.4c1.06.32,2,.56,2.75.73a14.69,14.69,0,0,0,2.49.28,5.58,5.58,0,0,0,2.27-.33A4.69,4.69,0,0,0,115.44,549.5Z"/><path class="cls-1" d="M143.89,500.09q-3.52,8.91-10.17,11.38t-17-1.17l2.46-12.07q6,2.29,9.64,2a5.36,5.36,0,0,0,4.89-3.49,4,4,0,0,0-.16-3.88,7,7,0,0,0-3.38-2.52,12.39,12.39,0,0,0-7-.87,30,30,0,0,0-7.81,3L106.75,497a36.84,36.84,0,0,1-5.94,2.54,18.37,18.37,0,0,1-6.13.7,21.33,21.33,0,0,1-7.24-1.59q-7.77-3.08-10.21-9.35t.69-14.32a22.63,22.63,0,0,1,2.5-4.73,15.62,15.62,0,0,1,3-3.26A12.49,12.49,0,0,1,86.84,465a16,16,0,0,1,3.67-.87,20.17,20.17,0,0,1,3.88,0,26.45,26.45,0,0,1,3.85.63c1.18.29,2.44.66,3.79,1.1l-2.66,11.89c-1.33-.47-2.45-.83-3.35-1.1a22.07,22.07,0,0,0-2.9-.64,7.14,7.14,0,0,0-2.54,0,4.38,4.38,0,0,0-1.88,1,4.32,4.32,0,0,0-1.29,2,4.57,4.57,0,0,0,.34,4A6.4,6.4,0,0,0,91,485.69a12.05,12.05,0,0,0,3.3.84,9.28,9.28,0,0,0,3.21-.27,19.82,19.82,0,0,0,2.71-.87c.71-.3,1.7-.75,3-1.35l8.54-4.44a48.44,48.44,0,0,1,5.23-2.28,33,33,0,0,1,5.32-1.4,20.78,20.78,0,0,1,6-.16,24.28,24.28,0,0,1,6.2,1.58,16.61,16.61,0,0,1,9.67,9.07Q146.81,492.73,143.89,500.09Z"/><path class="cls-1" d="M154.82,471.49,93,441.2l9.47-19.31q7.89-16.09,25.63-7.4a26.35,26.35,0,0,1,7.59,5.3,13.31,13.31,0,0,1,3.54,6.26,16.54,16.54,0,0,1,.11,6.76,29.06,29.06,0,0,1-2.56,7.34l-2.74,5.59L161,458.93Zm-29.55-30.06,2-4q2-4.17.86-6.51c-.79-1.56-2.77-3.11-5.92-4.66a32.07,32.07,0,0,0-3.92-1.67,8.71,8.71,0,0,0-3.09-.4,4.23,4.23,0,0,0-2.81,1.26,12.52,12.52,0,0,0-2.38,3.52l-2,4Z"/><path class="cls-1" d="M178.4,425.13l-59.35-34.82,15.16-25.85,8.38,4.92-8.09,13.78,15.72,9.22,6.28-10.7,8.44,5-6.28,10.7,18.58,10.9,8.17-13.93,8.24,4.84Z"/><path class="cls-1" d="M200.59,388.39l-56.87-38.74,7.87-11.56,49,33.36,9.05-13.27,7.88,5.37Z"/><path class="cls-1" d="M237.7,309.75a13.78,13.78,0,0,1-9.34,5q-5.51.58-10.62-3.8t-5.47-10a13.73,13.73,0,0,1,3.5-10,13.87,13.87,0,0,1,9.41-5q5.59-.56,10.72,3.85c3.41,2.92,5.19,6.23,5.37,9.93A13.94,13.94,0,0,1,237.7,309.75Z"/><path class="cls-1" d="M295.08,274.67l-39.51-43.11L247.46,239l-7-7.61,26.4-24.21,7,7.62-8,7.32,39.52,43.11Z"/><path class="cls-1" d="M337.49,238.84a26.69,26.69,0,0,1-8.39,4.8,14.26,14.26,0,0,1-7.73.41,19.21,19.21,0,0,1-7.09-3.39,38.37,38.37,0,0,1-6.83-6.81l-15.91-19.8a38.43,38.43,0,0,1-5.16-8.12,18.59,18.59,0,0,1-1.73-7.58,14.34,14.34,0,0,1,2.12-7.4,27.06,27.06,0,0,1,6.51-7.15q8.5-6.84,15.77-5.38t14.24,10.13l15.9,19.8q7,8.67,6.89,16.16T337.49,238.84Zm-8.74-6.58a6.37,6.37,0,0,0,2.43-1.28,6.53,6.53,0,0,0,1.79-2.11,4.73,4.73,0,0,0,.57-2.14,5.76,5.76,0,0,0-.5-2.25,13.76,13.76,0,0,0-1.18-2.23c-.44-.65-1-1.41-1.7-2.28L310,194.87c-.69-.87-1.31-1.58-1.86-2.16a12.41,12.41,0,0,0-1.89-1.59,5.64,5.64,0,0,0-2.06-.93,4.72,4.72,0,0,0-2.18.13,6.77,6.77,0,0,0-2.43,1.31,6.54,6.54,0,0,0-1.79,2.08,4.51,4.51,0,0,0-.57,2.08,5.74,5.74,0,0,0,.51,2.2,13.86,13.86,0,0,0,1.17,2.17c.43.65,1,1.41,1.69,2.27l20.17,25.11c.69.86,1.31,1.58,1.86,2.15a14.12,14.12,0,0,0,1.9,1.64,5.64,5.64,0,0,0,2.06,1A4.52,4.52,0,0,0,328.75,232.26Z"/><path class="cls-1" d="M393.14,197.71,362.2,148.09l-9.34,5.82-5.47-8.77,30.4-19,5.46,8.77-9.19,5.74L405,190.31Z"/><path class="cls-1" d="M424.14,178.8l-31.75-61,12.44-6.48,13,25,10.76-5.59-13-25L428,99.22l31.75,61-12.44,6.48L433.22,139.6l-10.75,5.59,14.12,27.14Z"/><path class="cls-1" d="M474.41,153.66,447.52,90.31,475.1,78.6l3.8,9-14.71,6.24,7.12,16.77,11.42-4.85,3.83,9-11.43,4.85,8.42,19.83,14.86-6.31,3.73,8.78Z"/><path class="cls-1" d="M546,126.4,518.78,62.55l11.39-3.19,15.91,39.12L540.73,56.4l9-2.51,17.47,38.55-6.68-41.57,11.27-3.16,9.88,68.7-11.35,3.17-18.2-40.07,5.41,43.65Z"/><path class="cls-1" d="M603.28,111.37,591.12,43.65l13.81-2.49,5,27.78,11.93-2.14-5-27.78,13.81-2.48,12.17,67.73L629,106.75l-5.41-30.1-11.93,2.14,5.41,30.11Z"/><path class="cls-1" d="M677.85,101.32a26.82,26.82,0,0,1-9.64-.63,14.26,14.26,0,0,1-6.68-3.94,19.12,19.12,0,0,1-4-6.73,38.65,38.65,0,0,1-1.93-9.45l-2.32-25.3a37.75,37.75,0,0,1,.18-9.62,18.6,18.6,0,0,1,2.75-7.27,14.3,14.3,0,0,1,5.86-5A26.93,26.93,0,0,1,671.41,31q10.86-1,16.12,4.23t6.26,16.31l2.32,25.29q1,11.09-3.18,17.28T677.85,101.32ZM674.2,91a6.39,6.39,0,0,0,2.73.27,6.5,6.5,0,0,0,2.66-.77,4.79,4.79,0,0,0,1.66-1.46,5.77,5.77,0,0,0,.82-2.16,12.39,12.39,0,0,0,.25-2.5c0-.79-.05-1.74-.16-2.84l-2.94-32.08q-.15-1.65-.36-2.82a11.56,11.56,0,0,0-.7-2.37A5.63,5.63,0,0,0,677,42.37a4.84,4.84,0,0,0-1.89-1.1,6.75,6.75,0,0,0-2.76-.25,6.67,6.67,0,0,0-2.64.74,4.74,4.74,0,0,0-1.62,1.42,5.62,5.62,0,0,0-.78,2.12,13.46,13.46,0,0,0-.24,2.46c0,.78.06,1.72.16,2.82l2.94,32.07q.15,1.65.36,2.82a14,14,0,0,0,.68,2.42,5.85,5.85,0,0,0,1.16,2A4.75,4.75,0,0,0,674.2,91Z"/><path class="cls-1" d="M712.94,98l-1.11-68.81,14-.22.95,59.26L742.83,88l.15,9.55Z"/><path class="cls-1" d="M755.44,97.86l3.47-68.73,29.93,1.52-.49,9.69-16-.8-.92,18.2,12.4.62-.5,9.78L771,67.52,769.89,89l16.13.82-.48,9.53Z"/><path class="cls-1" d="M831.78,104.55l3.33-69.31,11.64,2.09L844,79.47l13.5-40.21,9.19,1.65-1.06,42.32,12.09-40.34L889.28,45l-21,66.14L856.66,109l1.06-44-14.14,41.65Z"/><path class="cls-1" d="M907.68,121.9a26.87,26.87,0,0,1-8.79-4,14.29,14.29,0,0,1-4.85-6,19.34,19.34,0,0,1-1.39-7.73,38.8,38.8,0,0,1,1.54-9.52L901,70.12a38.48,38.48,0,0,1,3.58-8.93,18.62,18.62,0,0,1,5.15-5.83,14.2,14.2,0,0,1,7.24-2.6,26.92,26.92,0,0,1,9.6,1.11q10.53,2.91,13.58,9.67T940.22,81l-6.79,24.48q-3,10.72-9.1,15T907.68,121.9Zm.24-10.94a6.45,6.45,0,0,0,2.46,1.22,6.55,6.55,0,0,0,2.76.23,4.8,4.8,0,0,0,2.07-.79,5.81,5.81,0,0,0,1.53-1.72,13.08,13.08,0,0,0,1.12-2.25c.28-.75.57-1.65.86-2.72l8.61-31c.3-1.07.51-2,.66-2.77a12.32,12.32,0,0,0,.19-2.47,5.79,5.79,0,0,0-.44-2.21,4.82,4.82,0,0,0-1.39-1.7,6.75,6.75,0,0,0-2.48-1.2,6.64,6.64,0,0,0-2.73-.24,4.58,4.58,0,0,0-2,.75,5.63,5.63,0,0,0-1.49,1.7A13.29,13.29,0,0,0,916.55,68c-.28.73-.56,1.62-.86,2.69l-8.61,31c-.29,1.07-.51,2-.66,2.77a15.1,15.1,0,0,0-.22,2.5,5.79,5.79,0,0,0,.39,2.26A4.61,4.61,0,0,0,907.92,111Z"/><path class="cls-1" d="M941.57,131l24-64.5,16.29,6.06a45.55,45.55,0,0,1,8.54,4.08,20.21,20.21,0,0,1,5.55,5.15,12.33,12.33,0,0,1,2.31,6.88,22.86,22.86,0,0,1-1.68,8.85,26,26,0,0,1-5.51,9.42,12.69,12.69,0,0,1-8.26,3.57L980,145.33l-13.38-5,3.43-31.84-4.55-1.69-10.82,29.09Zm26.88-32.16,3.27,1.21q4.74,1.77,7.56.27c1.88-1,3.42-3.13,4.64-6.4s1.47-5.73.87-7.63-2.42-3.4-5.43-4.52l-4-1.49Z"/><path class="cls-1" d="M992.62,150.92l28.84-62.48,12.7,5.87-24.84,53.81,14.58,6.73-4,8.66Z"/><path class="cls-1" d="M1030.94,169l33.51-60.11,14.61,8.15a41.31,41.31,0,0,1,8.89,6.33,14.73,14.73,0,0,1,4.13,6.82,15.44,15.44,0,0,1,0,7.61,38.09,38.09,0,0,1-3.84,9.1l-12.08,21.68a39.84,39.84,0,0,1-5.83,8.24,16.38,16.38,0,0,1-6.56,4.26,14.69,14.69,0,0,1-8,.27,37.11,37.11,0,0,1-9.91-4Zm17-1.71,2.54,1.42a17.27,17.27,0,0,0,2.34,1.11,6.42,6.42,0,0,0,2,.46,10.58,10.58,0,0,0,1.64-.06,3.45,3.45,0,0,0,1.47-.63,12.59,12.59,0,0,0,1.3-1.06,9.81,9.81,0,0,0,1.27-1.59c.48-.72.89-1.36,1.22-1.94s.78-1.35,1.34-2.34l13.43-24.11c.8-1.43,1.39-2.58,1.79-3.47a11.84,11.84,0,0,0,.86-2.73,4,4,0,0,0-.2-2.41,6.84,6.84,0,0,0-1.57-2.09,14.26,14.26,0,0,0-3.07-2.16l-2.43-1.36Z"/><path class="cls-1" d="M1122.43,205.26a13.81,13.81,0,0,1-5.73-8.9c-.68-3.64.31-7.27,2.94-10.89s5.85-5.76,9.54-6.26a14.58,14.58,0,0,1,16,11.67q1,5.53-3,11t-9.47,6.14A14,14,0,0,1,1122.43,205.26Z"/><path class="cls-1" d="M1157.21,255.24l46.86-50.4,12.76,11.88a44.73,44.73,0,0,1,4.69,5,24.3,24.3,0,0,1,3.14,5.16,13.1,13.1,0,0,1,1.24,5.46,13.75,13.75,0,0,1-1.39,5.7,23.37,23.37,0,0,1-4.1,5.88l-.23.24q-8.58,9-16.94,3.4,7.54,9.57-2.51,20.56l-.32.34q-6.6,7.11-13.71,7.31t-14.45-6.52Zm16.94,2.32,2.79,2.6c2.58,2.39,4.93,3.45,7.06,3.16s4.47-1.78,7-4.49q4.1-4.41,4.23-7.81c.08-2.26-1.18-4.61-3.8-7l-2.49-2.32Zm21.25-22.86,2.46,2.29q3.81,3.54,6.76,3.16c2-.24,4.12-1.62,6.45-4.14q3.26-3.49,2.72-6.54c-.36-2-1.84-4.26-4.43-6.67l-1.55-1.44Z"/><path class="cls-1" d="M1202.62,299.46l20.1-18.43,21.51-38,8.86,9.66-12.91,21.91,22.61-11.32,8.67,9.45-39.68,18.19-20.11,18.43Z"/><path class="cls-1" d="M1249.14,355l47.23-34.49-6.49-8.88,8.35-6.09,21.12,28.92-8.35,6.1-6.39-8.75-47.23,34.48Z"/><path class="cls-1" d="M1270.27,384.52l58.57-36.13,7.36,11.93-24,14.83,6.37,10.31,24-14.82,7.36,11.94-58.56,36.13L1284,406.78l26-16.07-6.37-10.31-26,16.06Z"/><path class="cls-1" d="M1299,432.79l61.21-31.45L1373.92,428l-8.63,4.44L1358,418.22l-16.2,8.33,5.67,11-8.71,4.48-5.67-11-19.16,9.85,7.38,14.36-8.49,4.36Z"/><path class="cls-1" d="M1331.46,502.18l61.69-31.77,4,11.13-37.85,18.72,41.57-8.42,3.17,8.79-37.18,20.24,41-9.7,4,11L1344,537.05,1340,526l38.64-21.08-43.14,8.59Z"/><path class="cls-1" d="M1350.62,558.24l66.66-17.06,3.48,13.59-27.34,7,3,11.74,27.34-7,3.48,13.6-66.66,17-3.48-13.59,29.63-7.58-3-11.74-29.64,7.58Z"/><path class="cls-1" d="M1366.06,631.89a26.63,26.63,0,0,1-.06-9.67,14.19,14.19,0,0,1,3.43-6.94,19.33,19.33,0,0,1,6.43-4.51,38.19,38.19,0,0,1,9.29-2.61l25-4.15a38.5,38.5,0,0,1,9.62-.52,18.74,18.74,0,0,1,7.45,2.22,14.32,14.32,0,0,1,5.41,5.48,27.07,27.07,0,0,1,3,9.17q1.79,10.77-3,16.39t-15.81,7.43l-25.06,4.15q-11,1.81-17.46-1.93T1366.06,631.89Zm10-4.4a7.33,7.33,0,0,0,.89,5.35,4.84,4.84,0,0,0,1.58,1.55,5.76,5.76,0,0,0,2.21.66,12.61,12.61,0,0,0,2.51.07c.79-.06,1.73-.18,2.83-.36l31.77-5.26q1.64-.27,2.79-.57a11.94,11.94,0,0,0,2.32-.86,5.86,5.86,0,0,0,1.82-1.34,4.73,4.73,0,0,0,1-2,7.61,7.61,0,0,0-.88-5.35,4.67,4.67,0,0,0-1.53-1.51,5.5,5.5,0,0,0-2.17-.63,13.75,13.75,0,0,0-2.47,0c-.78,0-1.71.17-2.8.35l-31.78,5.26c-1.09.18-2,.37-2.78.57a13.57,13.57,0,0,0-2.37.85,5.87,5.87,0,0,0-1.88,1.3A4.61,4.61,0,0,0,1376.08,627.49Z"/><path class="cls-1" d="M1371.89,666.63l68.55-6.07,1.23,13.93-59,5.23,1.41,16-9.5.84Z"/><path class="cls-1" d="M1375.12,709l68.8-1.51.66,30-9.71.21-.35-16-18.22.4.27,12.4-9.79.22-.27-12.41-21.54.47.36,16.14-9.55.21Z"/><path class="cls-1" d="M1371.69,798.31a25.19,25.19,0,0,1,2.54-9.43,14.13,14.13,0,0,1,5.37-5.78,20.37,20.37,0,0,1,7.5-2.58,40.3,40.3,0,0,1,9.51-.09l24.17,2.3a41.52,41.52,0,0,1,9.58,1.92,20.17,20.17,0,0,1,6.88,3.94,14,14,0,0,1,4.07,6.67A26,26,0,0,1,1442,805a27.11,27.11,0,0,1-2.26,9,13.34,13.34,0,0,1-4.64,5.56,17,17,0,0,1-6.48,2.56,30.81,30.81,0,0,1-8.25.19l-5.95-.57,1.3-13.59,6.44.61,1.62.16,1.49.1a9.68,9.68,0,0,0,1.48,0l1.28-.17a3.33,3.33,0,0,0,1.25-.34l1-.59a2.38,2.38,0,0,0,.86-.9,12.69,12.69,0,0,0,.54-1.28,6.87,6.87,0,0,0,.34-1.66,6.11,6.11,0,0,0-.29-2.8,4.87,4.87,0,0,0-1.22-1.89,6.07,6.07,0,0,0-2.16-1.16,16.74,16.74,0,0,0-2.61-.67c-.8-.13-1.83-.25-3.07-.37L1392,794.29q-5-.48-7.48.56c-1.65.69-2.58,2.17-2.8,4.46a7.44,7.44,0,0,0,.11,2.35,3.33,3.33,0,0,0,.94,1.69,8.61,8.61,0,0,0,1.4,1.09,6.48,6.48,0,0,0,2,.69c.87.19,1.61.32,2.21.4s1.45.18,2.52.29l6.69.63-1.29,13.6-5.79-.56a33.08,33.08,0,0,1-8.23-1.72,18.81,18.81,0,0,1-6.16-3.65,13.14,13.14,0,0,1-3.81-6.37A25.55,25.55,0,0,1,1371.69,798.31Z"/><path class="cls-1" d="M1368.83,831.62l67.7,12.3-2.51,13.8-27.76-5-2.17,11.92,27.77,5-2.51,13.8-67.7-12.3,2.5-13.8,30.1,5.46,2.16-11.92-30.09-5.47Z"/><path class="cls-1" d="M1352.12,905.12a27,27,0,0,1,4-9,13.19,13.19,0,0,1,6.06-4.72,19.5,19.5,0,0,1,7.75-1.13,46,46,0,0,1,9.79,1.72l44.89,12.24L1421,917.53l-46.61-12.7c-1.26-.35-2.34-.61-3.25-.78a20.34,20.34,0,0,0-3-.34,7.74,7.74,0,0,0-2.72.28,5.19,5.19,0,0,0-2,1.32,5.7,5.7,0,0,0-1.35,2.52,5.89,5.89,0,0,0-.12,2.87,4.9,4.9,0,0,0,1.09,2.17,8.43,8.43,0,0,0,2.2,1.63,17.62,17.62,0,0,0,2.73,1.21c.86.3,1.94.62,3.22,1l46.61,12.7-3.62,13.26-44.88-12.24a46.16,46.16,0,0,1-9.31-3.48,19.63,19.63,0,0,1-6.11-4.9,13,13,0,0,1-2.84-7.11A27.3,27.3,0,0,1,1352.12,905.12Z"/><path class="cls-1" d="M1343.13,939l64.6,23.7-6,16.33a45.13,45.13,0,0,1-4,8.55,20.21,20.21,0,0,1-5.12,5.57,12.33,12.33,0,0,1-6.87,2.34,23.14,23.14,0,0,1-8.86-1.63,26.09,26.09,0,0,1-9.44-5.48,12.61,12.61,0,0,1-3.61-8.24L1329,977.52l4.91-13.4,31.87,3.29,1.67-4.56-29.15-10.69Zm32.28,26.74-1.2,3.27c-1.17,3.17-1.24,5.69-.24,7.56s3.15,3.41,6.42,4.62,5.74,1.44,7.63.83,3.39-2.43,4.5-5.45l1.47-4Z"/><path class="cls-1" d="M1314.71,1007.09a25.25,25.25,0,0,1,5.55-8,14.21,14.21,0,0,1,7-3.66,20.43,20.43,0,0,1,7.94.08,39.9,39.9,0,0,1,9,3.09l22,10.26a41.38,41.38,0,0,1,8.39,5,20.06,20.06,0,0,1,5.16,6,13.91,13.91,0,0,1,1.61,7.64,26.14,26.14,0,0,1-2.64,9.42,26.78,26.78,0,0,1-5.15,7.74,13.24,13.24,0,0,1-6.23,3.69,16.89,16.89,0,0,1-6.95.24,30.85,30.85,0,0,1-7.85-2.57l-5.41-2.53,5.76-12.38,5.87,2.74,1.47.68c.28.13.73.33,1.37.6a9.64,9.64,0,0,0,1.4.49c.29.05.71.14,1.27.27a3.34,3.34,0,0,0,1.28.09l1.12-.23a2.44,2.44,0,0,0,1.11-.56,11.14,11.14,0,0,0,.93-1,6.82,6.82,0,0,0,.88-1.45,6.1,6.1,0,0,0,.66-2.74,4.9,4.9,0,0,0-.51-2.18,6.06,6.06,0,0,0-1.65-1.82,16.14,16.14,0,0,0-2.23-1.5c-.72-.4-1.64-.86-2.77-1.38l-27.88-13q-4.56-2.12-7.23-2c-1.79.1-3.16,1.19-4.13,3.27a7.16,7.16,0,0,0-.68,2.25,3.25,3.25,0,0,0,.32,1.91,8.23,8.23,0,0,0,1,1.5,6.83,6.83,0,0,0,1.65,1.32q1.14.69,2,1.11t2.28,1.11l6.1,2.84-5.77,12.38-5.27-2.46a33,33,0,0,1-7.18-4.38,18.83,18.83,0,0,1-4.59-5.5,13.19,13.19,0,0,1-1.46-7.27A25.63,25.63,0,0,1,1314.71,1007.09Z"/><path class="cls-1" d="M1300.88,1037.5l59.67,34.29-7,12.16-24.47-14.06-6,10.51,24.47,14.06-7,12.16-59.66-34.28,7-12.17,26.52,15.24,6-10.5-26.52-15.25Z"/><path class="cls-1" d="M1262.26,1130.32a13.77,13.77,0,0,1,9-5.6q5.46-.93,10.84,3.11t6.11,9.62a14.58,14.58,0,0,1-11.9,15.82q-5.55.92-11-3.14t-6-9.57A14,14,0,0,1,1262.26,1130.32Z"/><path class="cls-1" d="M230.72,1229.12a25.36,25.36,0,0,1-5.33-7.51,12.32,12.32,0,0,1-.93-7.15,18.1,18.1,0,0,1,2.77-6.81,43.26,43.26,0,0,1,6.06-7.11l31.28-30.49,9,9.24L241.09,1211c-.87.85-1.6,1.6-2.18,2.26a19.39,19.39,0,0,0-1.69,2.25,7.18,7.18,0,0,0-1.06,2.34,4.68,4.68,0,0,0,.09,2.28,5.33,5.33,0,0,0,1.39,2.29,5.48,5.48,0,0,0,2.27,1.46,4.45,4.45,0,0,0,2.27.15,7.66,7.66,0,0,0,2.37-1,16.3,16.3,0,0,0,2.28-1.62c.65-.57,1.42-1.28,2.31-2.15l32.48-31.66,9,9.23-31.28,30.49a43.35,43.35,0,0,1-7.26,5.88,18.27,18.27,0,0,1-6.86,2.61,12.19,12.19,0,0,1-7.11-1.1A25.49,25.49,0,0,1,230.72,1229.12Z"/><path class="cls-1" d="M267.77,1263.62l41.8-49.27L325,1227.41q12.84,10.89.84,25a24.84,24.84,0,0,1-6.57,5.69,12.55,12.55,0,0,1-6.52,1.78,15.37,15.37,0,0,1-6.17-1.46,26.65,26.65,0,0,1-6.1-4l-4.45-3.78-18.21,21.45Zm34.17-20,3.21,2.72c2.22,1.88,4.12,2.64,5.73,2.28s3.47-1.8,5.6-4.31a28.87,28.87,0,0,0,2.42-3.19,8.19,8.19,0,0,0,1.08-2.71,4,4,0,0,0-.5-2.85,11.54,11.54,0,0,0-2.66-3l-3.21-2.73Z"/><path class="cls-1" d="M333.62,1316.41a23.74,23.74,0,0,1-6.54-6.44,13.36,13.36,0,0,1-2.24-7.06,19.21,19.21,0,0,1,1.35-7.32,38.08,38.08,0,0,1,4.32-7.82l13.05-18.69a39.44,39.44,0,0,1,6-6.94,18.83,18.83,0,0,1,6.41-3.8,13,13,0,0,1,7.32-.25,24.5,24.5,0,0,1,8.28,4,25.19,25.19,0,0,1,6.33,6,12.59,12.59,0,0,1,2.4,6.36,16,16,0,0,1-.9,6.48,29.29,29.29,0,0,1-3.66,6.83l-3.21,4.6L362,1285l3.48-5c.42-.6.71-1,.87-1.25s.42-.62.77-1.17a8.13,8.13,0,0,0,.68-1.21c.1-.27.26-.64.46-1.14a3.07,3.07,0,0,0,.29-1.17c0-.29,0-.64,0-1.07a2.23,2.23,0,0,0-.34-1.11,9.77,9.77,0,0,0-.8-1,6.51,6.51,0,0,0-1.2-1,5.93,5.93,0,0,0-2.42-1.06,4.44,4.44,0,0,0-2.11.13,5.79,5.79,0,0,0-2,1.22,17.3,17.3,0,0,0-1.75,1.83c-.48.6-1,1.37-1.72,2.33L339.71,1298q-2.7,3.87-3,6.37c-.19,1.66.59,3.11,2.36,4.35a6.62,6.62,0,0,0,2,1,3.05,3.05,0,0,0,1.82,0,8.1,8.1,0,0,0,1.54-.63,6.17,6.17,0,0,0,1.48-1.32q.83-.95,1.35-1.62c.35-.45.81-1.1,1.39-1.93l3.62-5.17,10.51,7.33-3.12,4.48a30.93,30.93,0,0,1-5.22,5.93,17.5,17.5,0,0,1-5.83,3.35,12.3,12.3,0,0,1-7,.17A23.89,23.89,0,0,1,333.62,1316.41Z"/><path class="cls-1" d="M416.48,1339.56l3.66-7.15,17.82,9.14-3.66,7.14Z"/><path class="cls-1" d="M485.16,1395.69l21.93-60.77,12.35,4.46-18.89,52.34,14.19,5.12-3,8.43Z"/><path class="cls-1" d="M536.32,1412.88l17.73-62.13,12.55,3.59-17.73,62.12Z"/><path class="cls-1" d="M578.29,1424.09l12.82-63.32,16,3.25a43.17,43.17,0,0,1,6.2,1.69,22.66,22.66,0,0,1,5,2.59,12.28,12.28,0,0,1,3.67,3.77,12.7,12.7,0,0,1,1.68,5.25,21.56,21.56,0,0,1-.4,6.71c0,.1-.05.21-.07.31q-2.46,11.39-11.89,11,10.73,4,8.06,17.69c0,.16-.05.3-.08.42q-1.82,8.94-7.4,12.58t-14.77,1.86Zm14.7-6.44,3.51.71q4.86,1,7.21-.93t3.39-7q1.13-5.55-.44-8.32c-1-1.86-3.21-3.12-6.49-3.78l-3.13-.64Zm5.82-28.73,3.09.63q4.77,1,7-.78t3.14-6.48c.59-2.92.25-5.12-1-6.57s-3.55-2.51-6.81-3.17l-1.95-.39Z"/><path class="cls-1" d="M645.09,1435.94l7.18-64.2,28,3.12-1,9.07-14.91-1.67-1.9,17,11.58,1.29-1,9.14-11.58-1.29-2.25,20.1,15.06,1.68-1,8.91Z"/><path class="cls-1" d="M701.85,1441.14l1.49-64.6,16.32.38a42.6,42.6,0,0,1,8.83,1,18.88,18.88,0,0,1,6.5,2.86,11.52,11.52,0,0,1,4.16,5.4,21.43,21.43,0,0,1,1.23,8.37,24.26,24.26,0,0,1-2,10,11.86,11.86,0,0,1-6.23,5.71l8.19,31.72-13.4-.31-6.73-29.31-4.56-.1-.67,29.14Zm14-36.79,3.28.07c3.16.08,5.43-.62,6.79-2.08s2.07-3.83,2.15-7.1-.45-5.54-1.58-7-3.18-2.27-6.2-2.34l-4-.09Z"/><path class="cls-1" d="M776.21,1440.66l-3.58-54.79-10.3.67-.64-9.68,33.56-2.2.63,9.69-10.14.66,3.58,54.79Z"/><path class="cls-1" d="M822.7,1436.75l2.83-65.77,14.26-2.15,22.09,62-12.06,1.82-4.48-13.78-10.14,1.53-.21,14.5Zm12.52-24.59,7.59-1.15-7.66-24.85Z"/><path class="cls-1" d="M890.77,1425l-15.68-62.68,15.24-3.81a38.85,38.85,0,0,1,10.16-1.38,13.9,13.9,0,0,1,7.21,2,14.51,14.51,0,0,1,4.86,5.23,35.19,35.19,0,0,1,3.22,8.69l5.66,22.61a37.58,37.58,0,0,1,1.3,9.39,15.41,15.41,0,0,1-1.75,7.13,13.79,13.79,0,0,1-5.3,5.32,35,35,0,0,1-9.38,3.59Zm10.52-12.07,2.64-.66a17.4,17.4,0,0,0,2.33-.74,6.12,6.12,0,0,0,1.66-1,8.62,8.62,0,0,0,1.09-1.1,3,3,0,0,0,.6-1.37,11,11,0,0,0,.22-1.56,9.77,9.77,0,0,0-.16-1.91c-.13-.8-.27-1.5-.41-2.11s-.33-1.43-.59-2.46l-6.29-25.14c-.37-1.49-.71-2.66-1-3.53a11.51,11.51,0,0,0-1.17-2.42,3.73,3.73,0,0,0-1.69-1.52,6.39,6.39,0,0,0-2.41-.42,13.64,13.64,0,0,0-3.49.49l-2.54.63Z"/><path class="cls-1" d="M956.49,1418.36l-2.24-3.69a7.53,7.53,0,0,0,3-3.39,6.72,6.72,0,0,0,0-4.87l-6,2-3.57-10.89,11-3.6,3.2,9.74Q965.39,1414.09,956.49,1418.36Z"/><path class="cls-1" d="M1022.71,1381.45,995.1,1323l18.25-8.63q15.23-7.2,23.15,9.58a24.85,24.85,0,0,1,2.47,8.33,12.55,12.55,0,0,1-1.07,6.67,15.46,15.46,0,0,1-3.88,5,26.89,26.89,0,0,1-6.17,3.89l-5.29,2.5,12,25.44Zm-4.08-39.36,3.81-1.8c2.63-1.25,4.11-2.67,4.44-4.28s-.21-3.9-1.62-6.89a28.7,28.7,0,0,0-1.9-3.52,8.1,8.1,0,0,0-2-2.1,4,4,0,0,0-2.8-.72,11.9,11.9,0,0,0-3.8,1.2l-3.81,1.79Z"/><path class="cls-1" d="M1075.81,1355.25,1054,1293.13l12.44-7.29,43.52,49.38-10.52,6.16-9.28-11.13-8.84,5.18,5.18,13.54Zm2.5-27.48,6.63-3.88-16.33-20.24Z"/><path class="cls-1" d="M1148.26,1310.24q-7.32,5.25-13.81,3.81t-12.78-9.54l8.07-8.28q3.59,4.88,6.62,6.46a5,5,0,0,0,5.63-.27,3.76,3.76,0,0,0,1.84-3.14,6.47,6.47,0,0,0-1.38-3.71,11.68,11.68,0,0,0-5.08-4.25,28.79,28.79,0,0,0-7.69-1.61l-9.14-.84a33.81,33.81,0,0,1-6-1,17.37,17.37,0,0,1-5.19-2.57,20,20,0,0,1-4.91-4.94q-4.56-6.37-3.3-12.57t7.83-11a21.33,21.33,0,0,1,4.37-2.46,14.61,14.61,0,0,1,4-1,11.18,11.18,0,0,1,3.69.23,14.17,14.17,0,0,1,3.34,1.18,18.75,18.75,0,0,1,3,2,27.84,27.84,0,0,1,2.72,2.46q1.17,1.24,2.43,2.79l-8.15,8c-.81-1-1.51-1.91-2.08-2.58a20.34,20.34,0,0,0-2-2,6.72,6.72,0,0,0-2-1.3,4.29,4.29,0,0,0-2-.2,4.07,4.07,0,0,0-2,1,4.3,4.3,0,0,0-1.77,3.32,6,6,0,0,0,1.24,3.77,11.49,11.49,0,0,0,2.18,2.34,8.33,8.33,0,0,0,2.67,1.42,16.84,16.84,0,0,0,2.58.69c.71.13,1.72.28,3,.43l9,.85a44.67,44.67,0,0,1,5.29.86,30.84,30.84,0,0,1,4.91,1.61,19.34,19.34,0,0,1,4.79,2.9,23,23,0,0,1,4.09,4.4,15.59,15.59,0,0,1,3,12.08Q1154.31,1305.92,1148.26,1310.24Z"/><path class="cls-1" d="M1181.86,1283.76l-32.68-57.15,10.92-9.42,51.75,40.67-9.23,8-11.15-9.27-7.75,6.7,7.55,12.38Zm-2.52-27.48,5.81-5-19.73-17Z"/><path class="cls-1" d="M1236.56,1233.82l-18.32-17.89-36.76-18.18,8.6-8.81,21.21,11-11.79-20.61,8.41-8.62,19.12,36.26,18.32,17.88Z"/><path d="M621.66,1283.32v-10.89l19.49-30.32c.22-.36,1-1.53,2.29-3.49s2.16-3.33,2.57-4.06,1-1.89,1.8-3.49a18.77,18.77,0,0,0,1.64-4.42,20.06,20.06,0,0,0,.44-4.22q0-4.2-1.71-6.35a4.82,4.82,0,0,0-4-1.85,8.2,8.2,0,0,0-.83,0q-6.39.59-6.39,12V1230h-15V1226a37.62,37.62,0,0,1,1.22-10,23.27,23.27,0,0,1,3.76-7.82,16.28,16.28,0,0,1,6.84-5.22,25.47,25.47,0,0,1,10-1.83q10.56,0,16,5.61t5.42,15.78a30.16,30.16,0,0,1-.71,6.61,27,27,0,0,1-2.22,6.18c-1,2-1.94,3.73-2.81,5.15s-2,3.21-3.54,5.39c-.48.69-.84,1.21-1.07,1.57l-15.63,23.58H663v12.26Z"/><path d="M702.47,1284.64q-10.46,0-16-6.38t-5.56-17V1225q0-11,5.39-17.39t16.19-6.34q10.74,0,16.16,6.37t5.42,17.36v36.23q0,10.59-5.59,17T702.47,1284.64Zm0-13.53q5.91,0,5.91-10.2v-35.5q0-2.1-.15-3.57a18.94,18.94,0,0,0-.68-3.27,4.89,4.89,0,0,0-5.08-3.76,5.72,5.72,0,0,0-2.39.47,3.8,3.8,0,0,0-1.64,1.34,9.07,9.07,0,0,0-1,1.83,9,9,0,0,0-.56,2.32c-.12.91-.19,1.68-.22,2.32s0,1.41,0,2.32v35.5Q696.61,1271.11,702.47,1271.11Z"/><path d="M757.78,1283.32v-64.75l-12.06,4.15V1211.2c2.74-1.11,5.67-2.48,8.82-4.1a24,24,0,0,0,6.76-4.74h12v81Z"/><path d="M822.47,1284.64q-10.44,0-16-6.38t-5.57-17V1225q0-11,5.4-17.39t16.18-6.34q10.74,0,16.16,6.37t5.42,17.36v36.23q0,10.59-5.59,17T822.47,1284.64Zm0-13.53q5.91,0,5.91-10.2v-35.5q0-2.1-.15-3.57a17.22,17.22,0,0,0-.68-3.27,5.29,5.29,0,0,0-1.81-2.78,5.19,5.19,0,0,0-3.27-1,5.72,5.72,0,0,0-2.39.47,3.85,3.85,0,0,0-1.64,1.34,9.59,9.59,0,0,0-1,1.83,9.39,9.39,0,0,0-.56,2.32c-.11.91-.19,1.68-.22,2.32s0,1.41,0,2.32v35.5Q816.61,1271.11,822.47,1271.11Z"/></g></g></svg>